<svg width="31" height="31" viewBox="0 0 31 31" fill="none" xmlns="http://www.w3.org/2000/svg">
<path d="M11.6305 21.0758C12.0239 21.6896 12.8089 21.8467 13.3838 21.4268C13.9588 21.0068 14.106 20.1689 13.7126 19.5552L11.6305 21.0758ZM16.418 21.0965C15.7213 21.0965 15.1566 21.6993 15.1566 22.443C15.1566 23.1866 15.7213 23.7895 16.418 23.7895V21.0965ZM13.7126 19.5552C13.3649 19.0128 13.1635 18.3489 13.1635 17.6225H10.6406C10.6406 18.8889 10.9942 20.0832 11.6305 21.0758L13.7126 19.5552ZM13.1635 17.6225C13.1635 15.7001 14.617 14.1486 16.418 14.1486V11.4556C13.2237 11.4556 10.6406 14.2128 10.6406 17.6225H13.1635ZM16.418 14.1486C18.2189 14.1486 19.6725 15.7001 19.6725 17.6225H22.1953C22.1953 14.2128 19.6123 11.4556 16.418 11.4556V14.1486ZM19.6725 17.6225C19.6725 19.5449 18.2189 21.0965 16.418 21.0965V23.7895C19.6123 23.7895 22.1953 21.0322 22.1953 17.6225H19.6725Z" fill="#FD650B"/>
<path d="M22.6994 10.0761C23.2673 10.5067 24.0548 10.3642 24.4581 9.75781C24.8615 9.15147 24.7279 8.31091 24.1599 7.88038L22.6994 10.0761ZM4.92442 14.1353L5.98771 14.8598L5.98877 14.858L4.92442 14.1353ZM4.92442 21.1236L5.98877 20.4009L5.98771 20.3992L4.92442 21.1236ZM27.9078 21.1236L26.8444 20.3992L26.8434 20.4009L27.9078 21.1236ZM28.971 13.4109C28.5962 12.784 27.8162 12.6002 27.229 13.0003C26.6418 13.4004 26.4696 14.233 26.8444 14.8598L28.971 13.4109ZM24.1599 7.88038C21.8362 6.11919 19.188 5.14075 16.416 5.14075V7.83374C18.6141 7.83374 20.7594 8.60574 22.6994 10.0761L24.1599 7.88038ZM16.416 5.14075C11.4281 5.14075 6.9185 8.28042 3.86008 13.4126L5.98877 14.858C8.7077 10.2955 12.4983 7.83374 16.416 7.83374V5.14075ZM3.86113 13.4109C3.13301 14.6285 2.81152 16.1699 2.81152 17.6295C2.81152 19.089 3.13301 20.6305 3.86113 21.848L5.98771 20.3992C5.58055 19.7182 5.33439 18.7148 5.33439 17.6295C5.33439 16.5442 5.58055 15.5407 5.98771 14.8598L3.86113 13.4109ZM3.86008 21.8463C6.9185 26.9785 11.4281 30.1182 16.416 30.1182V27.4252C12.4983 27.4252 8.7077 24.9635 5.98877 20.4009L3.86008 21.8463ZM16.416 30.1182C21.404 30.1182 25.9136 26.9785 28.972 21.8463L26.8434 20.4009C24.1245 24.9635 20.3338 27.4252 16.416 27.4252V30.1182ZM28.971 21.848C29.6991 20.6305 30.0206 19.089 30.0206 17.6295C30.0206 16.1699 29.6991 14.6285 28.971 13.4109L26.8444 14.8598C27.2516 15.5407 27.4977 16.5442 27.4977 17.6295C27.4977 18.7148 27.2516 19.7182 26.8444 20.3992L28.971 21.848Z" fill="#FD650B"/>
</svg>
