<svg width="31" height="31" viewBox="0 0 31 31" fill="none" xmlns="http://www.w3.org/2000/svg">
<path d="M6.94539 13.8522C6.69228 13.8522 6.42585 13.7467 6.23935 13.5621C5.9596 13.272 5.86635 12.85 6.0262 12.4808L8.504 6.62598C8.55728 6.5073 8.58393 6.42818 8.62389 6.36224C10.5955 1.8656 13.1132 0.771106 17.5627 2.459C17.8158 2.5513 18.0156 2.7491 18.1222 2.99965C18.2287 3.2502 18.2287 3.52712 18.1222 3.77766L14.2189 12.7445C14.0591 13.1137 13.6994 13.3379 13.2997 13.3379H9.50311C8.74378 13.3379 8.02442 13.483 7.33171 13.7731C7.21181 13.8258 7.0786 13.8522 6.94539 13.8522ZM14.1523 3.68536C12.5004 3.68536 11.488 4.75347 10.4356 7.17981C10.4223 7.21937 10.3956 7.25893 10.3823 7.29849L8.63721 11.3995C8.93028 11.3732 9.21004 11.36 9.50311 11.36H12.6337L15.8441 3.97546C15.218 3.77766 14.6585 3.68536 14.1523 3.68536Z" fill="#FD650B"/>
<path d="M24.3827 13.6015C24.2895 13.6015 24.1829 13.5884 24.0897 13.562C23.5834 13.4169 23.0506 13.3378 22.4911 13.3378H13.2993C12.9662 13.3378 12.6465 13.1664 12.46 12.8894C12.2868 12.6125 12.2469 12.2565 12.3801 11.9532L16.2433 3.07857C16.4431 2.60385 17.0293 2.27418 17.5222 2.44561C17.682 2.49836 17.8286 2.56429 17.9884 2.63022L21.1323 3.9357C22.9707 4.68734 24.1962 5.47854 24.9955 6.42797C25.1554 6.61259 25.2886 6.81039 25.4218 7.02137C25.5683 7.24555 25.7016 7.50928 25.7948 7.7862C25.8348 7.8785 25.9014 8.04993 25.9413 8.23454C26.3144 9.48727 26.1279 11.0169 25.3286 12.995C25.1554 13.3642 24.7824 13.6015 24.3827 13.6015ZM14.8179 11.3598H22.5044C22.9307 11.3598 23.3437 11.3993 23.7566 11.4653C24.1296 10.318 24.2096 9.43453 23.9964 8.72245C23.9698 8.60377 23.9431 8.55102 23.9298 8.49828C23.8499 8.28729 23.7966 8.16861 23.73 8.06312C23.6367 7.91806 23.5701 7.79938 23.4636 7.6807C22.8907 6.995 21.8783 6.36204 20.3597 5.74227L17.7353 4.66097L14.8179 11.3598Z" fill="#FD650B"/>
<path d="M21.2015 30.059H10.8107C10.4377 30.059 10.0914 30.0326 9.74502 29.9931C5.06918 29.6898 2.40488 27.0393 2.08516 22.358C2.0452 22.0679 2.01855 21.7119 2.01855 21.3558V18.7844C2.01855 15.8174 3.80363 13.1405 6.56118 11.9538C7.50701 11.5582 8.4928 11.3604 9.51855 11.3604H22.5203C23.2797 11.3604 24.0123 11.4658 24.6917 11.6768C27.8223 12.6131 30.0203 15.5405 30.0203 18.7844V21.3558C30.0203 21.6459 30.007 21.9228 29.9937 22.1866C29.7006 27.3425 26.6633 30.059 21.2015 30.059ZM9.50523 13.3383C8.74591 13.3383 8.02655 13.4834 7.33383 13.7735C5.30896 14.6438 4.00346 16.6086 4.00346 18.7844V21.3558C4.00346 21.6327 4.0301 21.9097 4.05674 22.1734C4.30985 25.9316 6.17486 27.7777 9.9182 28.0283C10.2512 28.0678 10.5177 28.0942 10.7974 28.0942H21.1882C25.5843 28.0942 27.7424 26.1821 27.9555 22.0943C27.9688 21.8569 27.9821 21.6196 27.9821 21.3558V18.7844C27.9821 16.3976 26.3702 14.2614 24.0789 13.5625C23.5727 13.4175 23.0399 13.3383 22.4804 13.3383H9.50523Z" fill="#FD650B"/>
<path d="M3.00107 19.7733C2.45488 19.7733 2.00195 19.3249 2.00195 18.7843V14.9206C2.00195 10.7668 4.97265 7.18 9.07566 6.38881C9.43535 6.32287 9.80835 6.45474 10.0481 6.73166C10.2746 7.00858 10.3412 7.40418 10.1947 7.73384L7.86341 13.2459C7.75684 13.4832 7.57034 13.6678 7.34387 13.7733C5.319 14.6436 4.0135 16.6084 4.0135 18.7843C4.00018 19.3249 3.56057 19.7733 3.00107 19.7733ZM7.47709 9.0525C5.77194 10.0019 4.53304 11.6635 4.14671 13.6019C4.73286 13.0085 5.41226 12.5074 6.1849 12.1382L7.47709 9.0525Z" fill="#FD650B"/>
<path d="M29.0056 19.7728C28.4594 19.7728 28.0065 19.3244 28.0065 18.7838C28.0065 16.397 26.3946 14.2608 24.1033 13.5619C23.8369 13.4828 23.6104 13.2982 23.4905 13.0476C23.3706 12.7971 23.3573 12.507 23.4639 12.2564C24.09 10.7136 24.2498 9.59274 23.9967 8.72243C23.9701 8.60376 23.9434 8.551 23.9301 8.49825C23.7569 8.11585 23.8502 7.6675 24.1566 7.37739C24.463 7.08729 24.9292 7.02135 25.3022 7.21915C28.2063 8.72243 30.0047 11.6762 30.0047 14.9202V18.7838C30.0047 19.3244 29.5518 19.7728 29.0056 19.7728ZM25.6619 12.0455C26.5012 12.4279 27.2472 12.9685 27.8733 13.6147C27.6202 12.3224 26.9941 11.1488 26.0749 10.2257C26.0083 10.7795 25.8751 11.3861 25.6619 12.0455Z" fill="#FD650B"/>
</svg>
