<svg width="21" height="21" viewBox="0 0 21 21" fill="none" xmlns="http://www.w3.org/2000/svg">
<path d="M19.7782 3.34767L17.0566 6.06897L18.9518 7.96385C19.0673 8.07944 19.146 8.2267 19.1779 8.387C19.2098 8.54732 19.1934 8.71348 19.1308 8.86448C19.0683 9.01549 18.9623 9.14456 18.8264 9.23537C18.6904 9.32619 18.5307 9.37467 18.3673 9.37469H13.4079C13.1887 9.37468 12.9784 9.28761 12.8234 9.13262C12.6684 8.97764 12.5813 8.76744 12.5813 8.54826V3.58968C12.5813 3.42623 12.6298 3.26646 12.7206 3.13056C12.8115 2.99466 12.9405 2.88874 13.0916 2.82619C13.2426 2.76364 13.4088 2.74726 13.5691 2.77914C13.7295 2.81101 13.8768 2.88971 13.9923 3.00527L15.8875 4.90014L18.6093 2.17884C18.6861 2.10209 18.7772 2.04121 18.8775 1.99968C18.9777 1.95814 19.0852 1.93677 19.1938 1.93677C19.3023 1.93677 19.4098 1.95814 19.5102 1.99968C19.6104 2.04121 19.7015 2.10209 19.7782 2.17884C19.855 2.25558 19.9159 2.3467 19.9575 2.44697C19.9991 2.54724 20.0203 2.65472 20.0203 2.76325C20.0203 2.87179 19.9991 2.97926 19.9575 3.07954C19.9159 3.17981 19.855 3.27092 19.7782 3.34767ZM8.44848 12.6804H3.48911C3.32564 12.6804 3.16584 12.7289 3.02992 12.8197C2.894 12.9106 2.78806 13.0396 2.7255 13.1906C2.66294 13.3416 2.64656 13.5078 2.67844 13.6681C2.71032 13.8284 2.78903 13.9757 2.90461 14.0912L4.79979 15.9861L2.07805 18.7074C2.00129 18.7842 1.9404 18.8753 1.89886 18.9756C1.85732 19.0758 1.83594 19.1833 1.83594 19.2918C1.83594 19.4004 1.85732 19.5078 1.89886 19.6082C1.9404 19.7084 2.00129 19.7995 2.07805 19.8762C2.23307 20.0312 2.44332 20.1183 2.66255 20.1183C2.77111 20.1183 2.8786 20.097 2.97889 20.0554C3.07918 20.0139 3.17031 19.953 3.24706 19.8762L5.9688 17.155L7.86398 19.0499C7.97959 19.1654 8.12687 19.244 8.2872 19.276C8.44754 19.3078 8.61374 19.2915 8.76476 19.2289C8.9158 19.1664 9.04488 19.0604 9.13571 18.9245C9.22654 18.7886 9.27503 18.6289 9.27505 18.4655V13.5068C9.27504 13.2877 9.18795 13.0775 9.03294 12.9224C8.87794 12.7675 8.6677 12.6804 8.44848 12.6804Z" fill="#636363"/>
</svg>
