<svg width="21" height="21" viewBox="0 0 21 21" fill="none" xmlns="http://www.w3.org/2000/svg">
<path d="M17.1322 8.46471C18.7272 8.46471 20.0203 7.20915 20.0203 5.66034C20.0203 4.11152 18.7272 2.85596 17.1322 2.85596C15.5372 2.85596 14.2441 4.11152 14.2441 5.66034C14.2441 7.20915 15.5372 8.46471 17.1322 8.46471Z" fill="#636363"/>
<path d="M6.32069 8.46471C7.91572 8.46471 9.20875 7.20915 9.20875 5.66034C9.20875 4.11152 7.91572 2.85596 6.32069 2.85596C4.72564 2.85596 3.43262 4.11152 3.43262 5.66034C3.43262 7.20915 4.72564 8.46471 6.32069 8.46471Z" fill="#636363"/>
<path d="M17.1322 20.1183C18.7272 20.1183 20.0203 18.8627 20.0203 17.3139C20.0203 15.7651 18.7272 14.5095 17.1322 14.5095C15.5372 14.5095 14.2441 15.7651 14.2441 17.3139C14.2441 18.8627 15.5372 20.1183 17.1322 20.1183Z" fill="#636363"/>
<path d="M6.32069 20.1183C7.91572 20.1183 9.20875 18.8627 9.20875 17.3139C9.20875 15.7651 7.91572 14.5095 6.32069 14.5095C4.72564 14.5095 3.43262 15.7651 3.43262 17.3139C3.43262 18.8627 4.72564 20.1183 6.32069 20.1183Z" fill="#636363"/>
</svg>
