<svg width="129" height="41" viewBox="0 0 129 41" fill="none" xmlns="http://www.w3.org/2000/svg">
<path d="M35.6142 24.8726L20.0192 15.275L4.4242 24.8725C3.83545 25.2337 3.06546 25.0512 2.70546 24.4625C2.34296 23.875 2.52671 23.105 3.11546 22.7437L19.3654 12.7438C19.7667 12.4963 20.2742 12.4963 20.6754 12.7438L36.9254 22.7438C37.5142 23.1063 37.6967 23.8751 37.3354 24.4626C36.9704 25.0538 36.1979 25.2326 35.6142 24.8726Z" fill="#FD650B"/>
<path d="M23.1455 27.5575L16.8955 27.5575C16.5505 27.5575 16.2705 27.8375 16.2705 28.1825L16.2705 37.5575L7.52046 37.5575L7.52048 25.1688L20.0205 17.4775L32.5205 25.17L32.5205 37.5575L23.7705 37.5575L23.7705 28.1825C23.7705 27.8375 23.4905 27.5575 23.1455 27.5575ZM35.0205 2.5575L35.0205 10.345C35.0205 10.7 34.5918 10.8775 34.3405 10.6262L31.7505 8.03624L27.3755 12.4112C26.868 12.92 26.0818 13.0138 25.4668 12.6462L20.0305 9.38497L2.52048 20.1612L2.52049 16.4924L19.2017 6.22747C19.698 5.92122 20.323 5.91747 20.8255 6.21873L26.0292 9.34123L29.5418 5.82874L26.9517 3.23873C26.6993 2.98623 26.878 2.55748 27.233 2.55748L35.0205 2.5575Z" fill="#FD650B"/>
<path d="M63.4257 24.3306C63.5755 24.4803 63.7122 24.591 63.8359 24.6626C63.9596 24.7277 64.0573 24.7636 64.1289 24.7701C64.2005 24.7766 64.3014 24.7798 64.4316 24.7798C64.5683 24.7798 64.7539 24.718 64.9882 24.5943L65.3007 25.2974C64.8645 25.8378 64.3274 26.2186 63.6894 26.44C63.4225 26.5311 63.2076 26.5767 63.0449 26.5767C62.4264 26.5767 61.9056 26.4204 61.4824 26.1079C61.0592 25.7954 60.6946 25.4341 60.3886 25.024C60.0827 24.6138 59.7929 24.1451 59.5195 23.6177C59.0117 22.6542 58.6211 21.6743 58.3476 20.6783C57.7617 20.7564 57.1204 20.7954 56.4238 20.7954L56.4238 22.9439C56.4238 23.4712 56.4629 24.3143 56.541 25.4732L56.58 26.0591C56.0267 26.2284 55.3659 26.313 54.5976 26.313C53.8359 26.313 53.3509 26.2284 53.1425 26.0591C53.3313 24.6854 53.4258 23.6372 53.4258 22.9146L53.4258 15.0825C53.4258 14.5031 53.3737 14.132 53.2695 13.9693C53.1653 13.8065 53.097 13.7023 53.0644 13.6568C53.0319 13.6047 52.9733 13.5559 52.8887 13.5103C52.8105 13.4582 52.7552 13.4224 52.7226 13.4029C52.651 13.3703 52.5371 13.328 52.3808 13.2759C52.2832 13.022 52.2344 12.7713 52.2344 12.524C52.2344 12.27 52.2376 12.1138 52.2441 12.0552C53.9889 11.7883 55.916 11.6548 58.0254 11.6548L58.582 11.6548C59.9687 11.6809 61.1536 12.0227 62.1367 12.6802C62.6185 13.0057 63.0026 13.4289 63.289 13.9497C63.5755 14.4706 63.7187 15.0598 63.7187 15.7173C63.7187 16.8111 63.4551 17.7453 62.9277 18.5201C62.4069 19.2883 61.5442 19.8677 60.3398 20.2583C60.8476 20.9419 61.2741 21.5279 61.6191 22.0162C61.9642 22.5044 62.2441 22.8918 62.459 23.1783C62.6738 23.4647 62.8496 23.6893 62.9863 23.8521C63.1295 24.0149 63.276 24.1744 63.4257 24.3306ZM60.8281 15.7369C60.8281 14.0181 59.806 13.1587 57.7617 13.1587C57.3776 13.1587 56.9316 13.1848 56.4238 13.2368L56.4238 19.2818C58.7285 19.1841 60.1054 18.5721 60.5547 17.4458C60.737 16.9706 60.8281 16.4009 60.8281 15.7369ZM69.7734 21.8404C69.9687 22.8039 70.3854 23.5819 71.0234 24.1744C71.6614 24.7668 72.4069 25.063 73.2597 25.063C74.1126 25.063 74.972 24.6952 75.8379 23.9595C76.1634 24.1744 76.3619 24.4283 76.4336 24.7213C75.8346 25.4179 74.9492 25.9159 73.7773 26.2154C73.302 26.3391 72.7519 26.4009 72.1269 26.4009C71.5084 26.4009 70.8672 26.287 70.2031 26.0591C69.539 25.8378 68.9433 25.5123 68.416 25.0826C67.8952 24.6529 67.4817 24.0897 67.1758 23.3931C66.8698 22.69 66.7168 21.912 66.7168 21.0591C66.7168 20.2063 66.873 19.4348 67.1855 18.7447C67.498 18.0481 67.9114 17.4784 68.4258 17.0357C69.5 16.1047 70.7304 15.6392 72.1172 15.6392C73.3346 15.6392 74.3893 15.968 75.2812 16.6255C75.7109 16.9511 76.0527 17.3742 76.3066 17.8951C76.567 18.4094 76.6972 18.9921 76.6972 19.6431C76.6972 20.7564 76.3294 21.3423 75.5937 21.4009L69.7734 21.8404ZM74.0703 19.3502C74.0703 18.5754 73.8554 17.9699 73.4258 17.5337C72.9961 17.0975 72.4329 16.8794 71.7363 16.8794C71.0397 16.8794 70.5123 17.2082 70.1543 17.8658C69.7962 18.5168 69.6172 19.4218 69.6172 20.5806C71.2383 20.4048 72.7031 20.2193 74.0117 20.024C74.0508 19.7896 74.0703 19.565 74.0703 19.3502ZM79.1094 13.5982C78.9987 12.9667 78.5853 12.6086 77.8691 12.524C77.8236 12.205 77.8008 12.0259 77.8008 11.9869C77.8008 11.9413 77.804 11.8925 77.8105 11.8404C79.041 11.3586 80.2877 11.1177 81.5508 11.1177C81.6094 11.1177 81.6712 11.1177 81.7363 11.1177C81.873 11.2935 81.9642 11.7037 82.0098 12.3482C82.0553 12.9862 82.0781 14.4771 82.0781 16.8209C82.0781 19.1581 82.0423 22.2375 81.9707 26.0591C81.541 26.1828 81.0267 26.2447 80.4277 26.2447C79.8287 26.2447 79.3632 26.1763 79.0312 26.0396C79.1484 25.1672 79.207 23.5038 79.207 21.0494C79.207 18.595 79.1745 16.1112 79.1094 13.5982ZM93.6504 20.5416L93.5918 23.8228C93.5918 23.8554 93.5918 23.8879 93.5918 23.9205C93.5918 24.2786 93.761 24.4576 94.0996 24.4576C94.36 24.4576 94.6367 24.373 94.9297 24.2037C95.0208 24.2818 95.1054 24.3925 95.1836 24.5357C95.2682 24.6724 95.317 24.7799 95.33 24.858C94.5228 25.8866 93.6829 26.401 92.8105 26.401C91.9446 26.401 91.3392 25.9745 90.9941 25.1217C90.3951 25.5383 89.7832 25.8541 89.1582 26.0689C88.5397 26.2903 88.0058 26.401 87.5566 26.401C87.1139 26.401 86.7005 26.3521 86.3164 26.2545C85.9388 26.1568 85.5872 26.0006 85.2617 25.7857C84.5586 25.33 84.207 24.578 84.207 23.5299C84.207 22.97 84.36 22.4817 84.666 22.065C84.9785 21.6418 85.4017 21.3098 85.9355 21.0689C86.9577 20.6067 88.1784 20.356 89.5976 20.317L90.7304 20.2779C90.776 19.7506 90.7988 19.3339 90.7988 19.0279C90.7988 18.3378 90.6653 17.817 90.3984 17.4654C90.138 17.1138 89.6497 16.9381 88.9336 16.9381C88.5039 16.9381 88.1686 17.0878 87.9277 17.3873C87.6933 17.6868 87.5761 18.1295 87.5761 18.7154C87.5761 18.7935 87.4655 18.8879 87.2441 18.9986C86.873 19.1744 86.5019 19.2623 86.1308 19.2623C85.7663 19.2623 85.4733 19.1581 85.2519 18.9498C85.0371 18.7414 84.9297 18.4485 84.9297 18.0709C84.9297 17.6933 85.0664 17.3384 85.3398 17.0064C85.6133 16.6744 85.9778 16.4172 86.4336 16.2349C87.3385 15.8769 88.3704 15.6978 89.5293 15.6978C90.7402 15.6978 91.6256 15.8899 92.1855 16.274C92.6933 16.6125 93.0547 17.0976 93.2695 17.7291C93.5234 18.4648 93.6504 19.4023 93.6504 20.5416ZM90.7304 24.0963C90.6458 23.621 90.6035 23.2109 90.6035 22.8658C90.6035 22.5142 90.6133 22.026 90.6328 21.401L89.2754 21.4595C88.5787 21.4595 88.0416 21.6288 87.664 21.9674C87.2864 22.3059 87.0976 22.7291 87.0976 23.2369C87.0976 23.7447 87.2083 24.1093 87.4297 24.3306C87.651 24.552 88.097 24.6627 88.7675 24.6627C89.4446 24.6627 90.0989 24.4739 90.7304 24.0963ZM97.6054 22.9537C97.7552 22.9277 97.97 22.9146 98.25 22.9146C98.5364 22.9146 98.914 23.0286 99.3828 23.2564C99.3763 23.3085 99.373 23.4062 99.373 23.5494C99.373 23.6926 99.4056 23.8684 99.4707 24.0768C99.5423 24.2851 99.6497 24.4771 99.7929 24.6529C100.105 25.0435 100.62 25.2389 101.336 25.2389C102.052 25.2389 102.521 24.998 102.742 24.5162C102.931 24.0735 102.898 23.6145 102.645 23.1393C102.456 22.7877 101.951 22.4524 101.131 22.1334C100.994 22.0813 100.805 22.0097 100.564 21.9185C98.403 21.1438 97.3092 20.024 97.2832 18.5592C97.2832 17.8951 97.4687 17.3352 97.8398 16.8795C98.5429 16.0266 99.7311 15.6002 101.404 15.6002C102.505 15.6002 103.432 15.8281 104.187 16.2838C104.949 16.7395 105.33 17.2994 105.33 17.9635C105.33 18.7057 104.969 19.0768 104.246 19.0768C103.732 19.0768 103.37 19.0214 103.162 18.9107C102.954 18.7936 102.85 18.7284 102.85 18.7154C102.85 18.6764 102.85 18.6406 102.85 18.608C102.85 17.3906 102.257 16.7818 101.072 16.7818C100.662 16.7818 100.337 16.8893 100.096 17.1041C99.8613 17.3124 99.7441 17.6217 99.7441 18.0318C99.7441 18.4355 99.8873 18.7708 100.174 19.0377C100.467 19.3046 101.027 19.6041 101.853 19.9361C102.687 20.2682 103.221 20.4928 103.455 20.61C104.92 21.3196 105.652 22.2376 105.652 23.3639C105.652 24.3404 105.239 25.0924 104.412 25.6197C103.592 26.1406 102.498 26.401 101.131 26.401C100.226 26.401 99.5423 26.3228 99.08 26.1666C98.6178 26.0103 98.2662 25.8671 98.0254 25.7369C97.791 25.6067 97.5957 25.47 97.4394 25.3267C97.2897 25.1835 97.1627 25.0338 97.0586 24.8775C96.7786 24.4674 96.6972 24.0507 96.8144 23.6275C96.9121 23.2695 97.1758 23.0448 97.6054 22.9537ZM113.133 24.0963C113.367 24.3111 113.501 24.5325 113.533 24.7604C112.674 25.8541 111.681 26.401 110.555 26.401C109.819 26.401 109.298 26.108 108.992 25.5221C108.732 25.0078 108.572 24.1256 108.514 22.8756C108.462 20.9225 108.436 19.1028 108.436 17.4166C107.771 17.3906 107.365 17.358 107.215 17.3189C107.182 17.2669 107.166 17.0748 107.166 16.7428C107.166 16.4107 107.182 16.2285 107.215 16.1959L108.455 16.0787C108.455 15.942 108.475 15.2877 108.514 14.1158C108.839 13.7838 109.314 13.5299 109.939 13.3541C110.571 13.1718 111.131 13.0807 111.619 13.0807C111.528 13.9075 111.453 14.9068 111.395 16.0787C111.609 16.0852 112.257 16.1243 113.338 16.1959C113.37 16.3066 113.387 16.5182 113.387 16.8307C113.387 17.1432 113.37 17.332 113.338 17.3971C112.739 17.4752 112.072 17.524 111.336 17.5436C111.31 18.3183 111.297 19.2981 111.297 20.483C111.297 21.6614 111.323 22.7747 111.375 23.8229C111.395 24.2265 111.596 24.4283 111.98 24.4283C112.371 24.4283 112.755 24.3177 113.133 24.0963ZM126.473 20.7467C126.473 21.5996 126.32 22.4004 126.014 23.1491C125.708 23.8978 125.275 24.5097 124.715 24.985C123.589 25.942 122.101 26.4205 120.252 26.4205C119.327 26.4205 118.475 26.2024 117.693 25.7662C116.912 25.33 116.29 24.7213 115.828 23.9401C115.366 23.1523 115.135 22.2148 115.135 21.1276C115.135 20.0338 115.415 19.0507 115.975 18.1783C117.075 16.4596 118.921 15.6002 121.512 15.6002C122.814 15.6002 123.956 16.0462 124.939 16.9381C125.962 17.8691 126.473 19.1386 126.473 20.7467ZM118.016 21.0299C118.016 22.1432 118.338 23.1165 118.982 23.9498C119.627 24.7832 120.382 25.1998 121.248 25.1998C122.85 25.1998 123.65 23.8945 123.65 21.2838C123.65 19.9882 123.354 18.9368 122.762 18.1295C122.169 17.3222 121.414 16.9186 120.496 16.9186C120.034 16.9186 119.633 17.0358 119.295 17.2701C118.956 17.5045 118.699 17.8203 118.523 18.2174C118.185 18.9791 118.016 19.9166 118.016 21.0299Z" fill="#FD650B"/>
</svg>
